{"title":"Hello Dolly [1969] DVDRip XviD AC3 - CODY","uid":8140956,"size":2140139964,"categoryP":"video","categoryS":"movies","magnet":"?xt=urn:btih:ca7b2b111941843f93204e4d6dbb4b18f6549b39&amp;dn=Hello+Dolly+%5B1969%5D+DVDRip+XviD+AC3+-+CODY&amp;tr=udp%3A%2F%2Ftracker.openbittorrent.com%3A80&amp;tr=udp%3A%2F%2Fopen.demonii.com%3A1337&amp;tr=udp%3A%2F%2Ftracker.coppersurfer.tk%3A6969&amp;tr=udp%3A%2F%2Fexodus.desync.com%3A6969","seeders":9,"leechers":1,"uploader":"CODYBOSS1969","files":5,"time":1360808847,"description":"General\nComplete name                            : Hello Dolly [1969] DVDRip XviD AC3 - CODY.avi\nFormat                                   : AVI\nFormat/Info                              : Audio Video Interleave\nFile size                                : 1.99 GiB\nDuration                                 : 2h 22mn\nOverall bit rate                         : 1 997 Kbps\n\nVideo\nID                                       : 0\nFormat                                   : MPEG-4 Visual\nFormat profile                           : Advanced Simple@L5\nFormat settings, BVOP                    : 4\nFormat settings, QPel                    : No\nFormat settings, GMC                     : No warppoints\nFormat settings, Matrix                  : Default (H.263)\nMuxing mode                              : Packed bitstream\nCodec ID                                 : XVID\nCodec ID/Hint                            : XviD\nDuration                                 : 2h 22mn\nBit rate                                 : 1 605 Kbps\nWidth                                    : 720 pixels\nHeight                                   : 304 pixels\nDisplay aspect ratio                     : 2.35:1\nFrame rate                               : 25.000 fps\nColor space                              : YUV\nChroma subsampling                       : 4:2:0\nBit depth                                : 8 bits\nScan type                                : Progressive\nCompression mode                         : Lossy\nBits/(Pixel*Frame)                       : 0.293\nStream size                              : 1.60 GiB (80%)\nWriting library                          : XviD 65\n\nAudio\nID                                       : 1\nFormat                                   : AC-3\nFormat/Info                              : Audio Coding 3\nMode extension                           : CM (complete main)\nCodec ID                                 : 2000\nDuration                                 : 2h 22mn\nBit rate mode                            : Constant\nBit rate                                 : 384 Kbps\nChannel(s)                               : 4 channels\nChannel positions                        : Front: L C R, Side: C\nSampling rate                            : 48.0 KHz\nBit depth                                : 16 bits\nCompression mode                         : Lossy\nStream size                              : 391 MiB (19%)\nAlignment                                : Aligned on interleaves\nInterleave, duration                     : 40 ms (1.00 video frame)\n\nAudio language                           : English\n\nIMDB link:                                &lt;a href=&quot; http://www.imdb.com/title/tt0064418/&quot; rel=&quot;nofollow&quot; target=&quot;_NEW&quot;&gt; http://www.imdb.com/title/tt0064418/&lt;/a&gt;\n\nSubtitles included                       : Romanian\n\nPlease seed at least 1,5:1 . This way this torrent has a chance to survive !\n\nThanks . Enjoy !! \t\t","torrent":{"xt":"urn:btih:ca7b2b111941843f93204e4d6dbb4b18f6549b39","amp;dn":"Hello+Dolly+%5B1969%5D+DVDRip+XviD+AC3+-+CODY","amp;tr":["udp%3A%2F%2Ftracker.openbittorrent.com%3A80","udp%3A%2F%2Fopen.demonii.com%3A1337","udp%3A%2F%2Ftracker.coppersurfer.tk%3A6969","udp%3A%2F%2Fexodus.desync.com%3A6969"],"infoHash":"ca7b2b111941843f93204e4d6dbb4b18f6549b39","infoHashBuffer":{"type":"Buffer","data":[202,123,43,17,25,65,132,63,147,32,78,77,109,187,75,24,246,84,155,57]},"announce":[],"urlList":[]}}